<svg width="142" height="53" viewBox="0 0 142 53" fill="none" xmlns="http://www.w3.org/2000/svg">
<path d="M77.8848 35.8064C76.214 35.8064 74.8453 35.4186 73.7788 34.6429C72.7301 33.8492 72.1435 32.7759 72.0191 31.423H73.9388C74.0276 32.2528 74.4098 32.9293 75.0853 33.4524C75.7785 33.9575 76.7028 34.21 77.8581 34.21C78.8713 34.21 79.6623 33.9665 80.2311 33.4794C80.8176 32.9924 81.1109 32.3881 81.1109 31.6665C81.1109 31.1615 80.9509 30.7466 80.631 30.4219C80.311 30.0972 79.9022 29.8446 79.4045 29.6642C78.9246 29.4658 78.2669 29.2584 77.4315 29.0419C76.3473 28.7533 75.4674 28.4647 74.792 28.176C74.1165 27.8874 73.5388 27.4635 73.0589 26.9043C72.5968 26.3271 72.3657 25.5604 72.3657 24.6043C72.3657 23.8828 72.579 23.2154 73.0056 22.602C73.4322 21.9887 74.0365 21.5017 74.8186 21.1409C75.6007 20.7801 76.4895 20.5997 77.4849 20.5997C79.049 20.5997 80.311 21.0056 81.2709 21.8174C82.2307 22.6111 82.7462 23.7114 82.8173 25.1185H80.9509C80.8976 24.2526 80.5599 23.5581 79.9378 23.035C79.3334 22.4938 78.498 22.2232 77.4315 22.2232C76.4895 22.2232 75.7251 22.4487 75.1386 22.8997C74.552 23.3507 74.2587 23.9099 74.2587 24.5773C74.2587 25.1545 74.4276 25.6326 74.7653 26.0114C75.1208 26.3722 75.5563 26.6608 76.0718 26.8772C76.5872 27.0757 77.2804 27.3012 78.1514 27.5537C79.2001 27.8423 80.0355 28.1219 80.6577 28.3925C81.2798 28.6631 81.813 29.0599 82.2574 29.5831C82.7018 30.1062 82.9328 30.8007 82.9506 31.6665C82.9506 32.4603 82.7373 33.1728 82.3107 33.8041C81.8841 34.4175 81.2887 34.9045 80.5243 35.2653C79.76 35.6261 78.8802 35.8064 77.8848 35.8064Z" fill="black"/>
<path d="M93.3959 20.5456C94.498 20.5456 95.4845 20.7801 96.3554 21.2491C97.2442 21.7181 97.9374 22.4397 98.4351 23.4138C98.9506 24.3698 99.2083 25.5424 99.2083 26.9314V35.59H97.3686V27.1478C97.3686 25.5424 96.9687 24.3157 96.1688 23.4679C95.3867 22.6201 94.3113 22.1962 92.9427 22.1962C91.5385 22.1962 90.4187 22.6471 89.5832 23.5491C88.7478 24.451 88.3301 25.7769 88.3301 27.5266V35.59H86.4638V15.5669H88.3301V23.3326C88.7923 22.4487 89.4677 21.7632 90.3564 21.2762C91.263 20.7891 92.2761 20.5456 93.3959 20.5456Z" fill="black"/>
<path d="M109.708 35.8064C108.34 35.8064 107.104 35.4998 106.002 34.8865C104.918 34.2551 104.056 33.3712 103.416 32.2348C102.794 31.0803 102.483 29.7364 102.483 28.2031C102.483 26.6698 102.803 25.3349 103.443 24.1985C104.082 23.044 104.953 22.1601 106.055 21.5468C107.158 20.9154 108.393 20.5997 109.762 20.5997C111.13 20.5997 112.366 20.9154 113.468 21.5468C114.587 22.1601 115.458 23.044 116.08 24.1985C116.72 25.3349 117.04 26.6698 117.04 28.2031C117.04 29.7184 116.72 31.0532 116.08 32.2077C115.441 33.3622 114.561 34.2551 113.441 34.8865C112.321 35.4998 111.077 35.8064 109.708 35.8064ZM109.708 34.1559C110.668 34.1559 111.557 33.9394 112.374 33.5065C113.192 33.0555 113.85 32.3881 114.347 31.5042C114.863 30.6023 115.121 29.5019 115.121 28.2031C115.121 26.9043 114.872 25.8129 114.374 24.929C113.876 24.0271 113.219 23.3597 112.401 22.9267C111.583 22.4758 110.695 22.2503 109.735 22.2503C108.775 22.2503 107.886 22.4758 107.069 22.9267C106.251 23.3597 105.593 24.0271 105.096 24.929C104.616 25.8129 104.376 26.9043 104.376 28.2031C104.376 29.5019 104.616 30.6023 105.096 31.5042C105.593 32.3881 106.242 33.0555 107.042 33.5065C107.86 33.9394 108.748 34.1559 109.708 34.1559Z" fill="black"/>
<path d="M122.282 24.0632C122.744 23.0711 123.473 22.2503 124.468 21.6009C125.482 20.9335 126.681 20.5997 128.068 20.5997C129.383 20.5997 130.565 20.9154 131.614 21.5468C132.68 22.1601 133.507 23.044 134.093 24.1985C134.698 25.3349 135 26.6608 135 28.176C135 29.6913 134.698 31.0262 134.093 32.1806C133.507 33.3351 132.68 34.2281 131.614 34.8594C130.565 35.4908 129.383 35.8064 128.068 35.8064C126.699 35.8064 125.508 35.4817 124.495 34.8324C123.482 34.1649 122.744 33.3351 122.282 32.343V42.571H120.442V20.8162H122.282V24.0632ZM133.107 28.176C133.107 26.9494 132.867 25.8941 132.387 25.0102C131.925 24.1083 131.285 23.4228 130.467 22.9538C129.65 22.4848 128.726 22.2503 127.695 22.2503C126.699 22.2503 125.784 22.4938 124.948 22.9809C124.131 23.4679 123.482 24.1624 123.002 25.0643C122.522 25.9663 122.282 27.0125 122.282 28.2031C122.282 29.3937 122.522 30.4399 123.002 31.3418C123.482 32.2438 124.131 32.9383 124.948 33.4253C125.784 33.9124 126.699 34.1559 127.695 34.1559C128.726 34.1559 129.65 33.9214 130.467 33.4524C131.285 32.9653 131.925 32.2708 132.387 31.3689C132.867 30.4489 133.107 29.3846 133.107 28.176Z" fill="black"/>
<path fill-rule="evenodd" clip-rule="evenodd" d="M52.7684 34.3691C53.6152 31.9051 54.0754 29.2571 54.0754 26.5001C54.0754 22.9773 53.324 19.6327 51.975 16.6222H55.0611C56.252 16.6222 57.3185 16.8386 58.2606 17.2716C59.2026 17.7045 60.0025 18.3268 60.6602 19.1386C61.3356 19.9503 61.8511 20.9425 62.2066 22.115C62.5621 23.2875 62.7398 24.6224 62.7398 26.1196C62.7398 28.9697 62.091 31.1344 60.7935 32.6136C59.4959 34.0747 57.6296 34.8053 55.1944 34.8053C54.1985 34.8053 53.3898 34.6599 52.7684 34.3691ZM52.084 36.1311H45.2228V35.1029C45.8982 35.0849 46.4403 35.0398 46.8492 34.9676C47.2757 34.8774 47.6046 34.7241 47.8357 34.5077C48.0667 34.2732 48.2178 33.9665 48.2889 33.5877C48.3778 33.1908 48.4222 32.6677 48.4222 32.0183V19.4092C48.4222 18.7778 48.3867 18.2727 48.3156 17.8939C48.2622 17.4971 48.1378 17.1904 47.9423 16.9739C47.7646 16.7394 47.4979 16.5861 47.1424 16.5139C46.7869 16.4238 46.3248 16.3606 45.756 16.3245V15.2963H51.3312C51.5588 15.7305 51.7735 16.1726 51.975 16.6222H51.675C51.3728 16.6222 51.2218 16.7755 51.2218 17.0822V31.7207C51.2218 33.0038 51.7373 33.8866 52.7684 34.3691C52.5627 34.9677 52.3342 35.5554 52.084 36.1311ZM52.084 36.1311C48.4348 44.527 40.1606 50.3874 30.5377 50.3874C17.5382 50.3874 7 39.6927 7 26.5001C7 13.3075 17.5382 2.61279 30.5377 2.61279C39.5476 2.61279 47.3752 7.75035 51.3312 15.2963H55.1144C56.7142 15.2963 58.1895 15.5669 59.5404 16.1081C60.909 16.6492 62.0822 17.3978 63.0598 18.3539C64.0552 19.31 64.8284 20.4464 65.3794 21.7632C65.9304 23.0801 66.2059 24.5142 66.2059 26.0655C66.2059 27.5447 65.9482 28.9066 65.4327 30.1513C64.9172 31.3779 64.1885 32.4332 63.2464 33.3171C62.3221 34.201 61.2112 34.8955 59.9136 35.4006C58.6161 35.8876 57.1941 36.1311 55.6477 36.1311H52.084ZM21.9975 35.1029V36.1311H32.4224C33.9688 36.1311 35.3908 35.8876 36.6884 35.4006C37.9859 34.8955 39.0968 34.201 40.0211 33.3171C40.9632 32.4332 41.692 31.3779 42.2074 30.1513C42.7229 28.9066 42.9806 27.5447 42.9806 26.0655C42.9806 24.5142 42.7051 23.0801 42.1541 21.7632C41.6031 20.4464 40.8299 19.31 39.8345 18.3539C38.8569 17.3978 37.6837 16.6492 36.3151 16.1081C34.9642 15.5669 33.4889 15.2963 31.8892 15.2963H22.5307V16.3245C23.0995 16.3606 23.5617 16.4238 23.9172 16.5139C24.2727 16.5861 24.5393 16.7394 24.717 16.9739C24.9126 17.1904 25.037 17.4971 25.0903 17.8939C25.1614 18.2727 25.1969 18.7778 25.1969 19.4092V32.0183C25.1969 32.6677 25.1525 33.1908 25.0636 33.5877C24.9925 33.9665 24.8415 34.2732 24.6104 34.5077C24.3793 34.7241 24.0505 34.8774 23.6239 34.9676C23.2151 35.0398 22.6729 35.0849 21.9975 35.1029ZM27.9965 17.0822C27.9965 16.7755 28.1476 16.6222 28.4497 16.6222H31.8358C33.0267 16.6222 34.0932 16.8386 35.0353 17.2716C35.9774 17.7045 36.7772 18.3268 37.4349 19.1386C38.1103 19.9503 38.6258 20.9425 38.9813 22.115C39.3368 23.2875 39.5146 24.6224 39.5146 26.1196C39.5146 28.9697 38.8658 31.1344 37.5682 32.6136C36.2707 34.0747 34.4043 34.8053 31.9691 34.8053C29.3207 34.8053 27.9965 33.7771 27.9965 31.7207V17.0822Z" fill="black"/>
</svg>