<svg id="Layer_1" enable-background="new 0 0 512 512" viewBox="0 0 512 512" xmlns="http://www.w3.org/2000/svg"><g fill="none" stroke="#000" stroke-linecap="round" stroke-linejoin="round" stroke-miterlimit="10"><path id="XMLID_119_" d="m22.1 262.7c-13.4-26-18.1-53.8-10.5-88.1 25.9-116 209.5-93.3 293.9-95.5 18.6-.5 37.3-1 55.9-1.5 58.3-1.5 109.4 16.3 134.3 73.4 20.3 46.4 9.7 101.5-24.9 138.1-21 22.3-49.4 36.8-79.2 43-30.9 6.4-63.9-1.9-94 8.8-38 13.5-41.5 60-45.6 93.3-18.2-8.2-29.9-26-40.5-42.9-10.5-16.7-21-33.4-31.5-50.1-1.4-2.3-3-4.7-5.4-5.9-2.1-1.1-4.6-1-7-.9-49.3 1.7-82.6 10.3-117.9-31.8-11.2-13-20.6-26.2-27.6-39.9z" stroke-width="6"/><g><path id="XMLID_118_" d="m112.4 195c-1.1 3.3-1.7 6.7-1.7 9.9-.3 13.8 8.3 27.8 22.4 30.7 44.1 9.2 39-72-4-59.3-8.2 2.5-14 10.3-16.7 18.7z" stroke-width="6"/><g stroke-width="2"><path id="XMLID_117_" d="m128.3 234.7c11.2-11.2 23-21.8 35.3-31.7"/><path id="XMLID_116_" d="m124.7 230.9c11.5-10.5 22.3-21.8 32.4-33.6"/><path id="XMLID_115_" d="m121.8 226.7c10.4-13.7 26-23 36-37"/><path id="XMLID_114_" d="m117.9 221.7c5.1-7.8 11.4-14.9 18.5-21 6.4-5.4 13.6-10.2 18-17.3"/><path id="XMLID_113_" d="m114.1 218.3c8.4-14 22-23.8 34.3-34.5"/><path id="XMLID_112_" d="m115.1 205.7c8.2-9.4 17.3-18.1 27-26"/><path id="XMLID_111_" d="m137.2 234.8c5.1-6.4 11-12.1 17.6-17"/><path id="XMLID_110_" d="m116 196.9c4.6-5.8 10-11 15.9-15.5"/><path id="XMLID_109_" d="m136.9 177.9c11.6 12.4 21.4 26.4 29.2 41.4"/><path id="XMLID_108_" d="m122.7 180.2c9.6 11.7 20.1 22.7 31.3 32.8 3.2 2.9 6.5 5.7 9 9.2"/><path id="XMLID_107_" d="m119.3 192.7c7.5 15 24.3 23.2 34 36.9"/><path id="XMLID_106_" d="m113.9 206.3c9.3 10.1 19.3 19.7 29.9 28.5"/></g></g><g><path id="XMLID_105_" d="m225.9 191.7c-1.1 3.3-1.7 6.7-1.7 9.9-.3 13.8 8.3 27.8 22.4 30.7 44.1 9.2 39-72-4-59.3-8.2 2.5-14 10.3-16.7 18.7z" stroke-width="6"/><g stroke-width="2"><path id="XMLID_104_" d="m241.8 231.4c11.2-11.2 23-21.8 35.3-31.7"/><path id="XMLID_103_" d="m238.2 227.7c11.5-10.5 22.3-21.8 32.4-33.6"/><path id="XMLID_102_" d="m235.4 223.4c10.4-13.7 26-23 36-37"/><path id="XMLID_101_" d="m231.5 218.4c5.1-7.8 11.4-14.9 18.5-21 6.4-5.4 13.6-10.2 18-17.3"/><path id="XMLID_100_" d="m227.7 215c8.4-14 22-23.8 34.3-34.5"/><path id="XMLID_99_" d="m228.7 202.4c8.2-9.4 17.3-18.1 27-26"/><path id="XMLID_98_" d="m250.8 231.6c5.1-6.4 11-12.1 17.6-17"/><path id="XMLID_97_" d="m229.6 193.7c4.6-5.8 10-11 15.9-15.5"/><path id="XMLID_96_" d="m250.5 174.7c11.6 12.4 21.4 26.4 29.2 41.4"/><path id="XMLID_95_" d="m236.3 177c9.6 11.7 20.1 22.7 31.3 32.8 3.2 2.9 6.5 5.7 9 9.2"/><path id="XMLID_94_" d="m232.9 189.5c7.5 15 24.3 23.2 34 36.9"/><path id="XMLID_93_" d="m227.5 203.1c9.3 10.1 19.3 19.7 29.9 28.5"/></g></g><g><path id="XMLID_92_" d="m343.8 190.6c-1.1 3.3-1.7 6.7-1.7 9.9-.3 13.8 8.3 27.8 22.4 30.7 44.1 9.2 39-72-4-59.3-8.2 2.5-14 10.4-16.7 18.7z" stroke-width="6"/><g stroke-width="2"><path id="XMLID_91_" d="m359.7 230.4c11.2-11.2 23-21.8 35.3-31.7"/><path id="XMLID_90_" d="m356.1 226.6c11.5-10.5 22.3-21.8 32.4-33.6"/><path id="XMLID_89_" d="m353.3 222.3c10.4-13.7 26-23 36-37"/><path id="XMLID_88_" d="m349.4 217.3c5.1-7.8 11.4-14.9 18.5-21 6.4-5.4 13.6-10.2 18-17.3"/><path id="XMLID_87_" d="m345.6 213.9c8.4-14 22-23.8 34.3-34.5"/><path id="XMLID_86_" d="m346.6 201.3c8.2-9.4 17.3-18.1 27-26"/><path id="XMLID_85_" d="m368.7 230.5c5.1-6.4 11-12.1 17.6-17"/><path id="XMLID_84_" d="m347.5 192.6c4.6-5.8 10-11 15.9-15.5"/><path id="XMLID_83_" d="m368.4 173.6c11.6 12.4 21.4 26.4 29.2 41.4"/><path id="XMLID_82_" d="m354.2 175.9c9.6 11.7 20.1 22.7 31.3 32.8 3.2 2.9 6.5 5.7 9 9.2"/><path id="XMLID_81_" d="m350.8 188.4c7.5 15 24.3 23.2 34 36.9"/><path id="XMLID_80_" d="m345.4 202c9.3 10.1 19.3 19.7 29.9 28.5"/></g></g><g stroke-width="2"><path id="XMLID_79_" d="m70.2 321.5c3.9-2.8 7.4-6.1 10.2-10"/><path id="XMLID_78_" d="m64.6 315.3c5-4.4 9.9-8.9 14.9-13.3"/><path id="XMLID_77_" d="m58.7 308c2.8-2.8 5.9-5.2 9.2-7.4"/><path id="XMLID_76_" d="m54.3 303.5 15.3-11.4"/><path id="XMLID_75_" d="m51.5 296.4c4.3-4.1 9.1-7.5 14.4-10.1"/><path id="XMLID_74_" d="m46 290.1c5.2-4.6 11-8.4 17.2-11.4"/><path id="XMLID_73_" d="m44 283.1c3.6-3.2 7.6-6 11.8-8.3"/><path id="XMLID_72_" d="m34.2 278.4c3.2-2 6.5-3.8 10.1-5.1"/><path id="XMLID_71_" d="m26.7 273.7c4.4-4.1 9.7-7.2 15.5-8.9"/><path id="XMLID_70_" d="m25.3 263c2.8-2.9 6-5.2 9.6-6.9"/><path id="XMLID_69_" d="m21.2 253.1c3.7-3.3 7.9-6.2 12.3-8.5"/><path id="XMLID_68_" d="m14.5 241.3c4.1-2.3 8.3-4.6 12.4-6.9"/><path id="XMLID_67_" d="m11.1 227c4.9-1.3 9.8-2.9 14.5-4.7"/><path id="XMLID_66_" d="m10.3 215.2c3.9-1.2 7.8-2.5 11.7-3.7"/><path id="XMLID_65_" d="m6 203.7c5.4-.6 10.7-1.6 16-3"/><path id="XMLID_64_" d="m11.8 189.6c2.9.3 5.8.2 8.7-.3"/><path id="XMLID_63_" d="m14.7 178.7c3.4.3 6.7.6 10.1.9"/><path id="XMLID_62_" d="m16.9 168.6c2.9.5 5.7 1.1 8.6 1.6"/><path id="XMLID_61_" d="m21.2 157.8c3.5 0 7.1 1.1 10 3.1"/><path id="XMLID_60_" d="m26.9 145.6c3.4-.2 6.8 1.5 8.6 4.4"/><path id="XMLID_59_" d="m31.3 138.3c3.4.5 6.6 1.8 9.4 3.7"/><path id="XMLID_58_" d="m38.5 129.6c3.7.9 7.2 2.7 10 5.3"/><path id="XMLID_57_" d="m49.3 120.4c3.8 2.5 7.6 4.9 11.4 7.4"/><path id="XMLID_56_" d="m60.8 113.9c3.7 3 7.2 6.3 10.2 10"/><path id="XMLID_55_" d="m71.6 108.9c2.9 2.3 5.6 4.9 8.1 7.8"/><path id="XMLID_54_" d="m79.8 104.3c2.5 2.3 4.8 4.9 6.7 7.6"/><path id="XMLID_53_" d="m89.2 100.4c-.3.3-.9.1-.9-.3-.1-.4.5-.7.8-.5 4 2.6 7.2 6.4 9.1 10.7"/><path id="XMLID_52_" d="m102.9 95.5c3.5 2.5 6.7 5.3 9.7 8.4"/><path id="XMLID_51_" d="m115.7 91.4c3.4 1.1 6.3 3.5 7.8 6.7"/><path id="XMLID_50_" d="m79.2 325.8c1.4-5.5 5-10.5 9.8-13.5"/><path id="XMLID_49_" d="m85.6 323.9c3.1-3.4 6.2-6.8 9.3-10.2"/><path id="XMLID_48_" d="m92.6 323c2.5-3.9 5.5-7.5 8.8-10.7"/><path id="XMLID_47_" d="m98.2 325.1c2.7-4.4 6-8.4 9.7-12"/><path id="XMLID_46_" d="m106.3 328.1c2.1-4.4 4.7-8.6 7.9-12.3"/><path id="XMLID_45_" d="m114.9 330.2c2.4-5 5.8-9.5 10-13.1"/><path id="XMLID_44_" d="m125.7 332.4c1.6-5.6 4.9-10.8 9.2-14.6"/><path id="XMLID_43_" d="m135.9 332.4c2.4-5.2 5.5-10.1 9.3-14.5"/><path id="XMLID_42_" d="m145.8 329.5c2.6-4.1 5.2-8.2 7.9-12.3"/><path id="XMLID_41_" d="m155.8 329.1c-.2-.3-.5.5-.1.5.4.1.6-.3.8-.6 1.7-3.2 3.5-6.4 5.2-9.6"/><path id="XMLID_40_" d="m161.8 331.7c2.4-5.2 5.9-9.9 10-13.8"/><path id="XMLID_39_" d="m169 336c3.9-4.5 7.8-9.1 11.6-13.6"/><path id="XMLID_38_" d="m179 333.1c-.7.9-1.4 1.7-2.1 2.6 3.4-3.5 7-6.8 10.7-10"/><path id="XMLID_37_" d="m182.7 339.6 9.3-4.5"/><path id="XMLID_36_" d="m186.4 348.5c3.5-1.9 7-3.7 10.5-5.6"/><path id="XMLID_35_" d="m194.2 355.6c3.9 0 7.9-.8 11.5-2.3"/><path id="XMLID_34_" d="m196.4 362.8c4.1-.1 8.2-.7 12.2-1.6"/><path id="XMLID_33_" d="m202.2 370c4.1-.1 8.2-.7 12.2-1.6"/><path id="XMLID_32_" d="m207.2 377.1c4.7.4 9.4-.3 13.8-2"/><path id="XMLID_31_" d="m213.6 384.6c3.1.9 6.4.8 9.4-.3"/><path id="XMLID_30_" d="m215.8 394.7c2.7 1 6 .4 8.1-1.6"/><path id="XMLID_29_" d="m222.1 403.6c2.8 1.6 6.7 1.1 8.8-1.3"/><path id="XMLID_28_" d="m228 411.3c2.9.9 6.1.5 8.7-1.1"/><path id="XMLID_27_" d="m239.4 422c1.5 1.8 5 1.2 5.8-1"/><path id="XMLID_26_" d="m272.9 113.2c35.6-1.7 71.1-3.4 106.7-5"/><path id="XMLID_25_" d="m299.3 123.8c-1.2.8-2.5 1.7-3.7 2.5 38.6-.5 77.2-.2 115.7.8"/><path id="XMLID_24_" d="m380.3 144.2c16.8.9 33.7 1.8 50.5 2.7"/><path id="XMLID_23_" d="m418.5 159.5c-.9.1-1.6.8-1.7 1.7 7.1.3 14.1.7 21.2 1"/><path id="XMLID_22_" d="m246 361.2c15.9-24.7 39.7-44.3 67-55.2"/><path id="XMLID_21_" d="m244.5 333.6c8.6-9.5 19.4-17.1 31.3-22.1"/><path id="XMLID_20_" d="m245.3 310.7c.1.4-.7.4-.8-.1-.1-.4.3-.7.6-1 2-1.6 4.1-3.1 6.1-4.7"/><path id="XMLID_19_" d="m433.7 178.5c15.4-2.1 30.7-4.2 46.1-6.2"/><path id="XMLID_18_" d="m367 94.8c10.1 12.2 21.3 23.5 33.3 33.7"/><path id="XMLID_17_" d="m348.2 100.6c13 12.6 24.8 26.5 35.3 41.2"/><path id="XMLID_16_" d="m338.3 103.1c-.5-.7-.9.8-.4 1.5 10.3 13.1 20.5 26.1 30.8 39.2"/><path id="XMLID_15_" d="m329.6 106.1c.2-.5-.7-.7-1-.3s0 1 .2 1.5c6.2 12.1 14.1 23.3 23.3 33.4"/><path id="XMLID_14_" d="m312.5 111.8c-.8-.1-1.6-.2-2.4-.4 3.7 8.2 9 15.7 15.6 21.8"/><path id="XMLID_13_" d="m303.8 116.8c-1-1.1-2.4-1.8-3.8-2.2 1.3 3.6 3 7 5.2 10.2"/><path id="XMLID_12_" d="m450.5 151.6c7.2 13.3 14.4 26.7 21.7 40"/><path id="XMLID_11_" d="m433.1 151.6c4.6 11.3 9.3 22.5 14.3 33.7"/><path id="XMLID_10_" d="m422.1 141.3c-.7-.6-1.3-1.3-2-1.9-.7 3 .6 6.1 1.9 8.9 5.1 11.1 10.7 22 16.6 32.7"/><path id="XMLID_9_" d="m398.3 142c-1.4-.3-1.5 2.1-.8 3.4 5.5 10.7 12.6 20.5 21 29.1"/><path id="XMLID_8_" d="m399.8 131.9c4.4 7.7 8.2 15.6 11.5 23.8"/><path id="XMLID_7_" d="m372.1 310.4c-.8.6-1.6 1.1-2.4 1.7 21.2-5.4 42-12.6 62-21.6 12.7-5.7 25.4-12.4 34.8-22.6"/><path id="XMLID_6_" d="m375.2 295.1c-.6.1.3.8.8.6 16.4-5.7 32.3-12.7 47.5-21"/><path id="XMLID_5_" d="m434.4 263.9c-1.7 0-3.4 0-5 0"/><path id="XMLID_4_" d="m105.3 164.3c.8-2.6 3.3-4.2 5.7-5.5 13.3-7 28.6-9.9 43.5-8.3"/><path id="XMLID_3_" d="m111.1 145.1c11.9-5 25.5-5.6 37.8-1.7"/><path id="XMLID_2_" d="m220 241.4c12.3 4.2 25.4 6.1 38.4 5.6"/><path id="XMLID_1_" d="m224.5 237.9h2.9"/></g></g></svg>