<?xml version="1.0" encoding="utf-8"?>
<!-- Generator: Adobe Illustrator 27.0.0, SVG Export Plug-In . SVG Version: 6.00 Build 0)  -->
<svg version="1.1" id="_圖層_1" xmlns="http://www.w3.org/2000/svg" xmlns:xlink="http://www.w3.org/1999/xlink" x="0px" y="0px"
	 viewBox="0 0 1074.4 490.5" style="enable-background:new 0 0 1074.4 490.5;" xml:space="preserve">
<style type="text/css">
	.st0{fill:#B2B19E;}
	.st1{fill:#020202;}
	.st2{font-family:'NotoSansTC-Bold';}
	.st3{font-size:97.9875px;}
	.st4{letter-spacing:6;}
	.st5{fill:#231815;}
	.st6{font-family:'Poppins-Bold';}
	.st7{font-size:36.7402px;}
	.st8{font-family:'Kanit-Medium';}
	.st9{font-size:24.6028px;}
	.st10{letter-spacing:1.9;}
	.st11{fill:#040000;}
	.st12{fill-rule:evenodd;clip-rule:evenodd;fill:#040000;}
	.st13{fill:#F9F9F7;}
	.st14{font-family:'NotoSansTC-Light';}
	.st15{font-size:14px;}
</style>
<rect x="0.5" y="0.5" class="st0" width="1073.4" height="489.5"/>
<text transform="matrix(1.0067 0 0 1 371.3501 251.679)" class="st1 st2 st3 st4">年中慶</text>
<text transform="matrix(1.0067 0 0 1 390.4917 303.8783)" class="st5 st6 st7">SUMMER SALE</text>
<text transform="matrix(1.0758 0 0 1 441.0132 398.8314)" class="st1 st8 st9 st10">0607—0822</text>
<g>
	<path class="st11" d="M92.4,398.1c-1.3,0-2.2-0.3-3.1-1c-0.8-0.6-1.2-1.5-1.3-2.5h1.4c0.1,0.6,0.4,1.2,0.8,1.6
		c0.5,0.4,1.2,0.6,2.1,0.6c0.8,0,1.3-0.2,1.8-0.5c0.4-0.4,0.7-0.9,0.7-1.4c0-0.4-0.2-0.7-0.4-1c-0.2-0.2-0.5-0.5-0.9-0.6
		c-0.4-0.2-0.8-0.3-1.5-0.5c-0.8-0.2-1.5-0.5-1.9-0.7c-0.5-0.2-1-0.5-1.3-1c-0.4-0.5-0.5-1-0.5-1.8c0-0.5,0.1-1.1,0.4-1.6
		s0.8-0.9,1.3-1.2c0.6-0.3,1.3-0.4,2-0.4c1.2,0,2.1,0.3,2.8,1s1.1,1.5,1.1,2.6h-1.4c-0.1-0.7-0.3-1.3-0.8-1.7s-1.1-0.6-1.9-0.6
		c-0.7,0-1.3,0.2-1.7,0.5c-0.4,0.4-0.7,0.8-0.7,1.3s0.1,0.9,0.4,1.1c0.3,0.3,0.6,0.5,1,0.7s0.9,0.3,1.6,0.5c0.8,0.2,1.4,0.5,1.9,0.6
		c0.4,0.2,0.9,0.5,1.2,1c0.3,0.4,0.5,1,0.5,1.7c0,0.6-0.2,1.2-0.4,1.7c-0.3,0.5-0.8,0.9-1.4,1.2C93.8,397.9,93.1,398.1,92.4,398.1
		L92.4,398.1z"/>
	<path class="st11" d="M104,386c0.8,0,1.6,0.2,2.2,0.5c0.7,0.4,1.2,1,1.6,1.7c0.4,0.8,0.6,1.7,0.6,2.8v6.9H107v-6.6
		c0-1.3-0.3-2.2-0.9-2.9c-0.6-0.6-1.4-1-2.4-1c-1.1,0-1.9,0.4-2.6,1.1c-0.6,0.7-1,1.7-1,3.2v6.4h-1.4v-15.8h1.4v6.1
		c0.4-0.7,0.8-1.3,1.5-1.7C102.4,386.2,103.1,386,104,386L104,386z"/>
	<path class="st11" d="M116.2,398.1c-1.1,0-1.9-0.2-2.8-0.7c-0.8-0.5-1.4-1.2-1.9-2.1c-0.4-1-0.7-2-0.7-3.2s0.2-2.3,0.8-3.2
		c0.4-1,1.1-1.6,1.9-2.1s1.7-0.7,2.8-0.7s1.9,0.2,2.8,0.7s1.5,1.2,1.9,2.1s0.8,2,0.8,3.2s-0.2,2.3-0.8,3.2c-0.4,1-1.1,1.6-1.9,2.1
		C118.1,397.8,117.2,398.1,116.2,398.1z M116.2,396.8c0.8,0,1.4-0.2,2-0.5c0.6-0.4,1.1-0.9,1.5-1.6s0.6-1.6,0.6-2.6
		s-0.1-1.9-0.5-2.6s-0.9-1.3-1.5-1.6c-0.6-0.4-1.3-0.5-2-0.5s-1.4,0.2-2,0.5s-1.1,0.9-1.5,1.6s-0.5,1.6-0.5,2.6s0.1,1.9,0.5,2.6
		s0.8,1.3,1.4,1.6C114.8,396.6,115.4,396.8,116.2,396.8z"/>
	<path class="st11" d="M125.6,388.8c0.4-0.8,0.9-1.4,1.6-2s1.6-0.8,2.7-0.8c1,0,1.9,0.2,2.6,0.7c0.8,0.5,1.4,1.2,1.9,2.1
		c0.4,0.9,0.7,2,0.7,3.2s-0.2,2.3-0.7,3.2c-0.4,1-1.1,1.6-1.9,2.1c-0.8,0.5-1.6,0.7-2.6,0.7c-1.1,0-1.9-0.2-2.7-0.8s-1.4-1.2-1.6-2
		v8h-1.4v-17.1h1.4V388.8L125.6,388.8z M133.7,392.1c0-1-0.1-1.8-0.5-2.5s-0.8-1.3-1.4-1.7c-0.6-0.4-1.3-0.5-2.1-0.5s-1.4,0.2-2,0.5
		c-0.6,0.4-1.1,1-1.4,1.7c-0.4,0.7-0.5,1.5-0.5,2.5s0.1,1.7,0.5,2.5c0.4,0.7,0.8,1.3,1.4,1.7c0.6,0.4,1.4,0.5,2,0.5
		c0.8,0,1.5-0.2,2.1-0.5s1.1-1,1.4-1.7C133.6,393.8,133.7,393,133.7,392.1L133.7,392.1z"/>
	<path class="st12" d="M73.6,397c0.6-2,1-4,1-6.2c0-2.8-0.6-5.4-1.6-7.8h2.3c0.9,0,1.7,0.2,2.4,0.5c0.7,0.3,1.3,0.9,1.8,1.5
		s0.9,1.4,1.1,2.4s0.4,2,0.4,3.2c0,2.3-0.4,3.9-1.4,5.1s-2.4,1.7-4.2,1.7C74.6,397.3,74,397.2,73.6,397L73.6,397z M73.1,398.3h-5.2
		v-0.8c0.5,0,0.9-0.1,1.2-0.1c0.3-0.1,0.6-0.2,0.8-0.4c0.2-0.2,0.3-0.4,0.4-0.7c0.1-0.3,0.1-0.7,0.1-1.3v-9.9c0-0.5,0-0.9-0.1-1.2
		c-0.1-0.3-0.2-0.5-0.3-0.7c-0.2-0.2-0.3-0.3-0.6-0.4c-0.3-0.1-0.6-0.2-1.1-0.2v-0.8h4.2c0.2,0.3,0.3,0.7,0.4,1h-0.2
		c-0.2,0-0.4,0.2-0.4,0.4v11.5c0,1,0.4,1.7,1.1,2C73.4,397.4,73.2,397.9,73.1,398.3L73.1,398.3z M73.1,398.3
		c-2.7,6.6-8.9,11.3-16.1,11.3c-9.8,0-17.7-8.4-17.7-18.9s7.9-18.9,17.6-18.9c6.7,0,12.6,4,15.6,10h2.9c1.2,0,2.3,0.2,3.3,0.6
		c1.1,0.4,1.9,1,2.6,1.7c0.8,0.8,1.4,1.7,1.7,2.7c0.4,1,0.6,2.2,0.6,3.4s-0.2,2.2-0.6,3.2s-0.9,1.8-1.6,2.5s-1.5,1.3-2.5,1.7
		s-2,0.5-3.2,0.5L73.1,398.3L73.1,398.3z M50.5,397.5v0.8h7.8c1.1,0,2.2-0.2,3.2-0.5s1.8-1,2.5-1.7c0.7-0.7,1.3-1.5,1.6-2.5
		c0.4-1,0.6-2,0.6-3.2c0-1.3-0.2-2.4-0.6-3.4s-1-2-1.7-2.7c-0.8-0.8-1.7-1.3-2.6-1.7c-1.1-0.4-2.1-0.6-3.3-0.6h-7v0.8
		c0.4,0,0.8,0.1,1.1,0.2s0.4,0.2,0.6,0.4c0.2,0.2,0.2,0.4,0.3,0.7s0.1,0.7,0.1,1.2v9.9c0,0.5,0,1-0.1,1.3s-0.2,0.5-0.4,0.7
		s-0.4,0.3-0.8,0.4C51.4,397.4,51,397.5,50.5,397.5L50.5,397.5z M55,383.3c0-0.2,0.2-0.4,0.4-0.4H58c0.9,0,1.7,0.2,2.4,0.5
		s1.3,0.9,1.8,1.5s0.9,1.4,1.1,2.4s0.4,2,0.4,3.2c0,2.3-0.4,3.9-1.4,5.1s-2.4,1.7-4.2,1.7c-1.9,0-3-0.8-3-2.5L55,383.3L55,383.3z"/>
</g>
<path class="st1" d="M474.3,91.7h107.5c11.4,0,20.6,9.3,20.6,20.9l0,0c0,11.5-9.2,20.9-20.6,20.9H474.3c-11.4,0-20.6-9.3-20.6-20.9
	l0,0C453.7,101,462.9,91.7,474.3,91.7z"/>
<text transform="matrix(1 0 0 1 474.3278 117.2714)" class="st13 st14 st15">南台科大L棟5樓</text>
</svg>
