<svg width="220" height="40" viewBox="0 0 220 40" fill="none" xmlns="http://www.w3.org/2000/svg">
<g clip-path="url(#clip0_1142_4380)">
<path d="M29.385 20.0001L41.667 12.0119L38.043 9.65491L22.137 20.0001L38.043 30.3452L41.667 27.9882L29.385 20.0001ZM11.667 30.0001V10.0001H16.7921V30.0001H11.667Z" fill="#A2A2A2"/>
</g>
<g clip-path="url(#clip1_1142_4380)">
<path d="M53.333 20L63.333 10V30L53.333 20Z" fill="#A2A2A2"/>
</g>
<rect x="80.5" y="5.5" width="29" height="29" fill="white"/>
<rect x="80.5" y="5.5" width="29" height="29" stroke="#DCDBDA"/>
<path d="M96.2955 13.3636V25H94.8864V14.8409H94.8182L91.9773 16.7273V15.2955L94.8864 13.3636H96.2955Z" fill="#A2A2A2"/>
<rect x="110.5" y="5.5" width="29" height="29" fill="white"/>
<rect x="110.5" y="5.5" width="29" height="29" stroke="#DCDBDA"/>
<path d="M121.205 25V23.9773L125.045 19.7727C125.496 19.2803 125.867 18.8523 126.159 18.4886C126.451 18.1212 126.667 17.7765 126.807 17.4545C126.951 17.1288 127.023 16.7879 127.023 16.4318C127.023 16.0227 126.924 15.6686 126.727 15.3693C126.534 15.0701 126.269 14.839 125.932 14.6761C125.595 14.5133 125.216 14.4318 124.795 14.4318C124.348 14.4318 123.958 14.5246 123.625 14.7102C123.295 14.892 123.04 15.1477 122.858 15.4773C122.68 15.8068 122.591 16.1932 122.591 16.6364H121.25C121.25 15.9545 121.407 15.3561 121.722 14.8409C122.036 14.3258 122.464 13.9242 123.006 13.6364C123.551 13.3485 124.163 13.2045 124.841 13.2045C125.523 13.2045 126.127 13.3485 126.653 13.6364C127.18 13.9242 127.593 14.3125 127.892 14.8011C128.191 15.2898 128.341 15.8333 128.341 16.4318C128.341 16.8598 128.263 17.2784 128.108 17.6875C127.956 18.0928 127.691 18.5455 127.312 19.0455C126.938 19.5417 126.417 20.1477 125.75 20.8636L123.136 23.6591V23.75H128.545V25H121.205Z" fill="#A2A2A2"/>
<g clip-path="url(#clip2_1142_4380)">
<path d="M166.667 20L156.667 30V10L166.667 20Z" fill="#A2A2A2"/>
</g>
<g clip-path="url(#clip3_1142_4380)">
<path d="M190.615 19.9999L178.333 27.9881L181.957 30.3451L197.863 19.9999L181.957 9.65478L178.333 12.0118L190.615 19.9999ZM208.333 9.99994V29.9999H203.208V9.99994H208.333Z" fill="#A2A2A2"/>
</g>
<defs>
<clipPath id="clip0_1142_4380">
<rect width="40" height="40" fill="white"/>
</clipPath>
<clipPath id="clip1_1142_4380">
<rect width="40" height="40" fill="white" transform="translate(40)"/>
</clipPath>
<clipPath id="clip2_1142_4380">
<rect width="40" height="40" fill="white" transform="matrix(-1 0 0 -1 180 40)"/>
</clipPath>
<clipPath id="clip3_1142_4380">
<rect width="40" height="40" fill="white" transform="matrix(-1 0 0 -1 220 40)"/>
</clipPath>
</defs>
</svg>
